<svg xmlns="http://www.w3.org/2000/svg" style="display:none" aria-hidden="true">
			<symbol id="milano-fsb-truck" viewBox="0 0 30 30" fill="none">
				<circle cx="15" cy="15" r="14.5" fill="#fff" stroke="currentColor"></circle>
				<path fill="currentColor" stroke="currentColor" stroke-width=".3" d="M23.802 14.611 22.71 13.6a.643.643 0 0 1-.166-.25l-.857-2.325a1.722 1.722 0 0 0-1.607-1.12h-1.298v-.363a.59.59 0 0 0-.59-.59h-7.841a.448.448 0 0 0-.453.43.439.439 0 0 0 .438.447h7.57v3.805a.59.59 0 0 0 .59.59h3.564l1.059.953v3.554h-.96a1.894 1.894 0 0 0-3.693 0h-2.953a1.894 1.894 0 0 0-3.693 0h-1.47a.448.448 0 0 0-.452.43.438.438 0 0 0 .438.447h1.491a1.895 1.895 0 0 0 3.678 0h2.968a1.894 1.894 0 0 0 3.678 0h1.255a.59.59 0 0 0 .59-.59V15.05a.589.589 0 0 0-.195-.439Zm-5.019-1.263v-2.565h1.298a.84.84 0 0 1 .785.546l.747 2.019h-2.83Zm-5.116 6.823a1.017 1.017 0 1 1 0-2.035 1.017 1.017 0 0 1 0 2.035Zm6.646 0a1.017 1.017 0 1 1 0-2.035 1.017 1.017 0 0 1 0 2.035Z"></path>
				<path fill="currentColor" stroke="currentColor" stroke-width=".3" d="M8.47 12.283h4.974a.438.438 0 0 0 0-.878H8.47a.439.439 0 1 0 0 .878ZM13.876 14.28a.438.438 0 0 0-.439-.439H6.435a.44.44 0 1 0 0 .878h7.002a.439.439 0 0 0 .439-.44ZM11.101 16.716a.44.44 0 0 0-.438-.438H7.614a.439.439 0 0 0 0 .877h3.049a.438.438 0 0 0 .438-.439Z"></path>
			</symbol>
		</svg>